PathFileType	4	(X/Y/Z)	C:\Users\WrightLab\Desktop\Jo\P5V45.trc
DataRate	CameraRate	NumFrames	NumMarkers	Units	OrigDataRate	OrigDataStartFrame	OrigNumFrames
100.00	100.00	       9	19	mm	100.00	526	       840
Frame#	Time	Headset_Front			Headset_Back			Headset_Left			Headset_Right			Left_Shoulder			Right_Shoulder			Sternum			C7			Left Elbow			Right Elbow			Left Wrist			Right Wrist			Left ASIS			Right ASIS			S2			Left Knee			Right Knee			Left Ankle			Right Ankle			
		X1	Y1	Z1	X2	Y2	Z2	X3	Y3	Z3	X4	Y4	Z4	X5	Y5	Z5	X6	Y6	Z6	X7	Y7	Z7	X8	Y8	Z8	X9	Y9	Z9	X10	Y10	Z10	X11	Y11	Z11	X12	Y12	Z12	X13	Y13	Z13	X14	Y14	Z14	X15	Y15	Z15	X16	Y16	Z16	X17	Y17	Z17	X18	Y18	Z18	X19	Y19	Z19	

526	5.250				-67.68075	1524.69922	495.33035				-195.30513	1580.65637	434.52216	13.55230	1526.65918	78.41471	-259.56137	1445.11035	387.82651	-62.98091	1318.59216	278.29230	-223.88808	1528.43738	159.31232	53.73397	1229.01038	-33.95272	-342.51718	1161.55444	402.72159	156.28966	1031.50598	67.84729	-181.53894	1032.07727	522.26630	17.60000	938.38684	143.97055	-159.06468	936.55078	366.52063	-242.49609	985.65210	64.19885	127.94357	542.29205	173.81209	-248.91098	499.47226	365.20740	37.85419	160.18898	65.43665	-338.76721	112.98851	231.22200	
527	5.260				-63.79127	1527.62598	500.29175				-189.89508	1581.82434	437.36545	21.45971	1525.68152	84.01867	-253.74507	1444.71191	389.79675	-56.94852	1318.01465	282.09543	-216.24512	1528.48413	162.12836	62.69713	1228.11499	-28.02214	-337.68982	1161.78979	404.55368	164.50253	1030.94910	75.19810	-177.56065	1032.01196	525.10852	23.93653	937.69391	148.00407	-155.22852	936.71613	369.31937	-234.66563	985.27539	65.01643	135.97766	543.28009	177.84810	-244.34500	498.95413	366.99747	62.88615	155.16754	76.05411	-338.46213	113.96532	231.02988	
528	5.270				-59.29839	1530.40527	504.76410				-185.34666	1583.29346	439.92230	29.57891	1524.78918	87.76797	-248.95786	1445.25183	393.45901	-50.95451	1317.82373	286.81570	-208.69502	1527.80286	164.96347	71.83164	1226.78027	-22.77715	-332.81595	1162.16162	406.41812	172.81961	1030.67053	82.20450	-173.28078	1032.28577	528.17877	30.36789	936.91339	151.83916	-152.01234	936.29193	371.79193	-227.50732	985.42145	64.97045	143.25633	543.61774	180.50699	-240.08388	498.72177	369.08749	87.85302	150.47960	86.54191	-337.96225	114.71156	230.44144	
529	5.280				-54.22382	1531.98999	509.24527				-181.59021	1585.14612	442.36630	38.35396	1523.82068	93.23297	-243.20377	1445.09363	395.96078	-45.37935	1316.90662	291.08875	-200.98918	1527.72412	167.95091	80.77593	1226.11792	-17.64396	-327.24390	1161.93628	408.73965	181.11725	1030.07715	89.39854	-168.82248	1031.83350	530.97980	37.24237	936.69672	157.45660	-148.00772	935.71484	374.39188	-219.05826	984.53827	66.96540	150.50194	543.94763	184.86476	-236.06229	498.14865	369.92444	112.71193	145.85243	99.16241	-337.69345	115.48279	230.49448	
530	5.290				-50.94527	1534.28381	514.20465				-175.80449	1586.05908	444.73730	46.62724	1522.71399	98.14124	-236.57819	1444.48645	397.41748	-38.84402	1315.58398	295.56427	-192.94308	1527.45874	170.73390	90.04066	1224.86096	-10.74690	-322.32736	1161.81165	410.40408	188.82848	1029.55078	96.42504	-164.08392	1032.06787	533.90778	44.01610	936.12958	162.40596	-143.86063	935.68561	376.71072	-211.19632	984.04681	67.99386	157.86490	544.29626	187.52190	-231.07396	498.25562	372.69891	137.03906	141.52451	110.77940	-336.65707	115.78855	230.24014	
531	5.300				-45.06566	1535.44153	518.30017				-170.13667	1586.72498	448.25449	55.00311	1521.61438	103.31326	-229.97774	1443.76880	399.26978	-32.97586	1315.21338	299.15964	-184.90594	1526.80969	173.52011	98.63261	1223.19336	-3.95643	-317.01672	1162.02148	412.68744	197.80579	1029.65076	102.97462	-159.36812	1032.04175	536.68030	51.52288	935.84424	167.80716	-139.94748	934.53796	379.15430	-204.44910	984.10773	67.47446	165.10106	543.92731	189.40013	-227.81329	497.22360	374.38196	161.86931	137.79207	123.24035	-335.51544	116.34697	229.70522	
532	5.310				-40.12312	1537.02917	522.51758				-164.15912	1587.20654	450.70444	63.77833	1520.39294	108.70930	-224.40001	1443.34875	401.87430	-27.19417	1314.10876	303.09207	-177.03229	1526.39160	176.80429	107.64944	1223.02808	0.18460	-311.30545	1161.42004	414.61459	206.51616	1029.25317	109.46738	-154.87917	1031.57385	539.73499	58.59934	934.45416	169.80289	-134.27388	933.05048	381.20908	-196.01285	983.39020	68.87081	171.97772	543.28156	191.29625	-222.88728	497.59390	377.29758	186.01140	134.84099	135.36378	-334.91235	116.80182	229.63730	
533	5.320				-35.67360	1538.84619	527.08740				-158.41954	1588.22522	453.17752	72.28362	1519.18591	113.72398	-218.62389	1442.35193	404.29633	-19.87866	1312.93213	307.54782	-168.61082	1525.89600	179.51770	116.77102	1221.15308	7.06265	-305.65897	1160.92371	416.72696	214.12842	1028.21179	117.01670	-149.74104	1031.38196	542.88525	63.98545	932.03650	172.79222	-128.95135	931.92615	383.84772	-187.46591	982.19824	70.13858	179.28294	541.90576	192.75266	-221.48808	495.35480	374.45020	209.85298	132.02202	149.29742	-334.70557	117.22282	229.35678	
534	5.330				-29.81663	1539.93738	531.26361				-152.21364	1588.99426	455.64639	81.80113	1517.89636	119.38023	-213.11661	1441.80713	407.28729	-13.49056	1312.02869	312.20297	-160.31564	1524.84277	182.56821	126.00704	1220.48962	12.22378	-299.65216	1160.15088	418.40982	221.79063	1027.09375	124.24736	-145.09642	1031.46423	546.10419	72.55227	930.89612	177.27760	-125.84136	931.05084	385.57147	-179.38440	981.82977	71.14114	185.68614	539.83081	194.27698	-217.70432	494.83759	375.87173	233.90388	130.24098	161.75861	-334.43076	117.87122	228.85175	
